<?xml version="1.0" encoding="UTF-8" standalone="no"?>
<!-- Created with Inkscape (http://www.inkscape.org/) -->

<svg
    xmlns:dc="http://purl.org/dc/elements/1.1/"
    xmlns:cc="http://creativecommons.org/ns#"
    xmlns:rdf="http://www.w3.org/1999/02/22-rdf-syntax-ns#"
    xmlns:svg="http://www.w3.org/2000/svg"
    xmlns="http://www.w3.org/2000/svg"
    xmlns:sodipodi="http://sodipodi.sourceforge.net/DTD/sodipodi-0.dtd"
    xmlns:inkscape="http://www.inkscape.org/namespaces/inkscape"
    width="300"
    height="300"
    viewBox="0 0 79.375001 79.374999"
    version="1.1"
    id="svg8"
    sodipodi:docname="appp.svg"
    inkscape:version="0.92.3 (2405546, 2018-03-11)"
    inkscape:export-filename="/home/heider/Pictures/Logos/appp.png"
    inkscape:export-xdpi="822.85712"
    inkscape:export-ydpi="822.85712">
  <defs
      id="defs2"/>
  <sodipodi:namedview
      id="base"
      pagecolor="#ffffff"
      bordercolor="#666666"
      borderopacity="1.0"
      inkscape:pageopacity="0.0"
      inkscape:pageshadow="2"
      inkscape:zoom="1.4142136"
      inkscape:cx="66.952159"
      inkscape:cy="205.61728"
      inkscape:document-units="mm"
      inkscape:current-layer="layer1"
      showgrid="false"
      showguides="true"
      inkscape:guide-bbox="true"
      inkscape:window-width="1654"
      inkscape:window-height="1024"
      inkscape:window-x="26"
      inkscape:window-y="26"
      inkscape:window-maximized="1"
      units="mm"
      fit-margin-top="0"
      fit-margin-left="0"
      fit-margin-right="0"
      fit-margin-bottom="0"
      inkscape:pagecheckerboard="false"
      showborder="true"
      borderlayer="false"/>
  <metadata
      id="metadata5">
    <rdf:RDF>
      <cc:Work
          rdf:about="">
        <dc:format>image/svg+xml</dc:format>
        <dc:type
            rdf:resource="http://purl.org/dc/dcmitype/StillImage"/>
        <dc:title></dc:title>
      </cc:Work>
    </rdf:RDF>
  </metadata>
  <g
      inkscape:label="Layer 1"
      inkscape:groupmode="layer"
      id="layer1"
      transform="translate(-66.576913,-2.6199797)">
    <text
        xml:space="preserve"
        style="font-style:normal;font-variant:normal;font-weight:normal;font-stretch:normal;font-size:7.05555534px;line-height:6.61458302px;font-family:Futura;-inkscape-font-specification:Futura;letter-spacing:0px;word-spacing:0px;fill:#000000;fill-opacity:1;stroke:none;stroke-width:0.26458332px;stroke-linecap:butt;stroke-linejoin:miter;stroke-opacity:1"
        x="77.474754"
        y="72.426781"
        id="text4757"><tspan
         sodipodi:role="line"
         id="tspan4755"
         x="77.474754"
         y="77.566864"
         style="stroke-width:0.26458332px"></tspan></text>
    <g
        aria-label="P"
        transform="matrix(0.57326215,-2.1394436,2.1394436,0.57326215,-684.238,454.2515)"
        style="font-style:normal;font-variant:normal;font-weight:normal;font-stretch:normal;font-size:26.66666603px;line-height:25px;font-family:Futura;-inkscape-font-specification:Futura;letter-spacing:0px;word-spacing:0px;fill:#020202;fill-opacity:1;stroke:none;stroke-width:1px;stroke-linecap:butt;stroke-linejoin:miter;stroke-opacity:1"
        id="flowRoot4747-5">
      <path
          d="m 277.36263,296.24935 v 8.55469 h -2.21354 v -19.0625 h 3.99739 q 2.09636,0 3.08594,0.22135 0.98958,0.22135 1.71875,0.72917 0.91146,0.65104 1.41927,1.78385 0.52084,1.13281 0.52084,2.51302 0,1.38021 -0.52084,2.51302 -0.50781,1.13282 -1.41927,1.78386 -0.72917,0.52083 -1.71875,0.74218 -0.97656,0.22136 -3.08594,0.22136 h -0.63802 z m 0,-2.05729 h 1.14583 q 2.91667,0 3.91927,-0.67709 1.01563,-0.6901 1.01563,-2.39583 0,-1.82292 -1.04167,-2.5651 -1.02864,-0.74219 -3.89323,-0.74219 h -1.14583 z"
          style=""
          id="path4979"/>
    </g>
    <g
        aria-label="P"
        transform="matrix(1.5661815,1.5661815,-1.5661815,1.5661815,143.46596,-842.87648)"
        style="font-style:normal;font-variant:normal;font-weight:normal;font-stretch:normal;font-size:26.66666603px;line-height:25px;font-family:Futura;-inkscape-font-specification:Futura;letter-spacing:0px;word-spacing:0px;fill:#020202;fill-opacity:1;stroke:none;stroke-width:1px;stroke-linecap:butt;stroke-linejoin:miter;stroke-opacity:1"
        id="flowRoot4747-5-7">
      <path
          d="m 277.36263,296.24935 v 8.55469 h -2.21354 v -19.0625 h 3.99739 q 2.09636,0 3.08594,0.22135 0.98958,0.22135 1.71875,0.72917 0.91146,0.65104 1.41927,1.78385 0.52084,1.13281 0.52084,2.51302 0,1.38021 -0.52084,2.51302 -0.50781,1.13282 -1.41927,1.78386 -0.72917,0.52083 -1.71875,0.74218 -0.97656,0.22136 -3.08594,0.22136 h -0.63802 z m 0,-2.05729 h 1.14583 q 2.91667,0 3.91927,-0.67709 1.01563,-0.6901 1.01563,-2.39583 0,-1.82292 -1.04167,-2.5651 -1.02864,-0.74219 -3.89323,-0.74219 h -1.14583 z"
          style=""
          id="path4976"/>
    </g>
    <g
        aria-label="P"
        transform="matrix(-2.1394437,0.57326224,-0.57326224,-2.1394437,852.95785,522.50699)"
        style="font-style:normal;font-variant:normal;font-weight:normal;font-stretch:normal;font-size:26.66666603px;line-height:25px;font-family:Futura;-inkscape-font-specification:Futura;letter-spacing:0px;word-spacing:0px;fill:#020202;fill-opacity:1;stroke:none;stroke-width:1px;stroke-linecap:butt;stroke-linejoin:miter;stroke-opacity:1"
        id="flowRoot4747-5-7-9">
      <path
          d="m 277.36263,296.24935 v 8.55469 h -2.21354 v -19.0625 h 3.99739 q 2.09636,0 3.08594,0.22135 0.98958,0.22135 1.71875,0.72917 0.91146,0.65104 1.41927,1.78385 0.52084,1.13281 0.52084,2.51302 0,1.38021 -0.52084,2.51302 -0.50781,1.13282 -1.41927,1.78386 -0.72917,0.52083 -1.71875,0.74218 -0.97656,0.22136 -3.08594,0.22136 h -0.63802 z m 0,-2.05729 h 1.14583 q 2.91667,0 3.91927,-0.67709 1.01563,-0.6901 1.01563,-2.39583 0,-1.82292 -1.04167,-2.5651 -1.02864,-0.74219 -3.89323,-0.74219 h -1.14583 z"
          style=""
          id="path4973"/>
    </g>
  </g>
</svg>
